<mxfile host="app.diagrams.net" agent="Mozilla/5.0 (Windows NT 10.0; Win64; x64) AppleWebKit/537.36 (KHTML, like Gecko) Chrome/136.0.0.0 Safari/537.36" version="27.0.6">
  <diagram name="1 oldal" id="PFcgdZgyPhdaz_xG8bAy">
    <mxGraphModel dx="546" dy="922" grid="1" gridSize="10" guides="1" tooltips="1" connect="1" arrows="1" fold="1" page="1" pageScale="1" pageWidth="827" pageHeight="1169" math="0" shadow="0">
      <root>
        <mxCell id="0" />
        <mxCell id="1" parent="0" />
        <mxCell id="OtNDEJbsBYpyGBp_8rM2-1" value="Vásárló" style="rounded=0;whiteSpace=wrap;html=1;" vertex="1" parent="1">
          <mxGeometry x="130" y="120" width="120" height="60" as="geometry" />
        </mxCell>
        <mxCell id="OtNDEJbsBYpyGBp_8rM2-9" style="rounded=0;orthogonalLoop=1;jettySize=auto;html=1;exitX=0;exitY=1;exitDx=0;exitDy=0;entryX=1;entryY=0;entryDx=0;entryDy=0;endArrow=none;startFill=0;" edge="1" parent="1" source="OtNDEJbsBYpyGBp_8rM2-2" target="OtNDEJbsBYpyGBp_8rM2-3">
          <mxGeometry relative="1" as="geometry" />
        </mxCell>
        <mxCell id="OtNDEJbsBYpyGBp_8rM2-10" style="rounded=0;orthogonalLoop=1;jettySize=auto;html=1;exitX=0.5;exitY=1;exitDx=0;exitDy=0;entryX=0.5;entryY=0;entryDx=0;entryDy=0;endArrow=none;startFill=0;" edge="1" parent="1" source="OtNDEJbsBYpyGBp_8rM2-2" target="OtNDEJbsBYpyGBp_8rM2-4">
          <mxGeometry relative="1" as="geometry" />
        </mxCell>
        <mxCell id="OtNDEJbsBYpyGBp_8rM2-12" style="rounded=0;orthogonalLoop=1;jettySize=auto;html=1;exitX=1;exitY=0.5;exitDx=0;exitDy=0;entryX=0;entryY=0.5;entryDx=0;entryDy=0;endArrow=none;startFill=0;" edge="1" parent="1" source="OtNDEJbsBYpyGBp_8rM2-2" target="OtNDEJbsBYpyGBp_8rM2-5">
          <mxGeometry relative="1" as="geometry" />
        </mxCell>
        <mxCell id="OtNDEJbsBYpyGBp_8rM2-2" value="Termék" style="rounded=0;whiteSpace=wrap;html=1;" vertex="1" parent="1">
          <mxGeometry x="130" y="360" width="120" height="60" as="geometry" />
        </mxCell>
        <mxCell id="OtNDEJbsBYpyGBp_8rM2-3" value="falyta" style="ellipse;whiteSpace=wrap;html=1;" vertex="1" parent="1">
          <mxGeometry x="50" y="470" width="75" height="50" as="geometry" />
        </mxCell>
        <mxCell id="OtNDEJbsBYpyGBp_8rM2-4" value="ár" style="ellipse;whiteSpace=wrap;html=1;" vertex="1" parent="1">
          <mxGeometry x="160" y="480" width="75" height="50" as="geometry" />
        </mxCell>
        <mxCell id="OtNDEJbsBYpyGBp_8rM2-5" value="termékNeve" style="ellipse;whiteSpace=wrap;html=1;" vertex="1" parent="1">
          <mxGeometry x="380" y="390" width="75" height="50" as="geometry" />
        </mxCell>
        <mxCell id="OtNDEJbsBYpyGBp_8rM2-11" style="rounded=0;orthogonalLoop=1;jettySize=auto;html=1;exitX=0.5;exitY=0;exitDx=0;exitDy=0;entryX=1;entryY=1;entryDx=0;entryDy=0;endArrow=none;startFill=0;" edge="1" parent="1" source="OtNDEJbsBYpyGBp_8rM2-6" target="OtNDEJbsBYpyGBp_8rM2-2">
          <mxGeometry relative="1" as="geometry" />
        </mxCell>
        <mxCell id="OtNDEJbsBYpyGBp_8rM2-6" value="&lt;u&gt;termékID&lt;/u&gt;" style="ellipse;whiteSpace=wrap;html=1;" vertex="1" parent="1">
          <mxGeometry x="360" y="450" width="75" height="50" as="geometry" />
        </mxCell>
        <mxCell id="OtNDEJbsBYpyGBp_8rM2-14" value="falyta" style="ellipse;whiteSpace=wrap;html=1;" vertex="1" parent="1">
          <mxGeometry x="270" y="490" width="75" height="50" as="geometry" />
        </mxCell>
      </root>
    </mxGraphModel>
  </diagram>
</mxfile>
